<?xml version="1.0" encoding="UTF-8" standalone="no" ?>
<!DOCTYPE svg PUBLIC "-//W3C//DTD SVG 1.1//EN" "http://www.w3.org/Graphics/SVG/1.1/DTD/svg11.dtd">
<svg xmlns="http://www.w3.org/2000/svg" xmlns:xlink="http://www.w3.org/1999/xlink" version="1.1" width="500" height="500" viewBox="0 0 500 500" xml:space="preserve">
<desc>Created with Fabric.js 3.6.3</desc>
<defs>
</defs>
<g transform="matrix(1.5224521240548212 0 0 1.5224521240548212 143.59000000000006 249.89)"  >
<linearGradient id="SVGID_24113" gradientUnits="userSpaceOnUse" gradientTransform="matrix(1 0 0 1 5.596225615008358 5.005054474561597)"  x1="0" y1="0" x2="88.8129230120295" y2="89.9864093165184">
<stop offset="0%" style="stop-color:rgb(0,104,56);stop-opacity: 1"/>
<stop offset="100%" style="stop-color:rgb(150,207,36);stop-opacity: 1"/>
</linearGradient>
<path style="stroke: none; stroke-width: 0; stroke-dasharray: none; stroke-linecap: butt; stroke-dashoffset: 0; stroke-linejoin: miter; stroke-miterlimit: 4; fill: url(#SVGID_24113); fill-rule: evenodd; opacity: 1;"  transform=" translate(-50.00268712102311, -49.9982591328208)" d="m 26.234 79.855 c 0.39062 -0.19531 0.85547 -0.14453 1.1953 0.12891 c 0.33984 0.27344 0.48437 0.71875 0.37891 1.1406 c -0.69141 2.6914 0.44141 5.5234 2.7969 6.9922 c 2.1094 1.3164 4.332 0.64844 6.1055 -0.88281 c -0.36719 -1.3438 -0.097657 -2.7852 0.73047 -3.9023 c 0.17578 -0.23828 0.4375 -0.39453 0.73047 -0.44141 c 0.28906 -0.042969 0.58594 0.027344 0.82422 0.20312 c 0.49609 0.36328 0.60156 1.0586 0.23828 1.5547 c -0.83984 1.1367 -0.40625 2.6914 0.69922 4.0938 l 0.003906 -0.003907 c 1.2383 1.5039 2.8789 2.625 4.7266 3.2344 c 2.5391 1.0234 5.4453 0.29297 7.1953 -1.8086 l 0.12109 -79.398 c -3.2539 -2.6992 -7.4102 -2.1328 -10.344 0.70312 v 0.003906 c -0.89062 1.0117 -1.4883 2.2539 -1.7266 3.582 c -0.21484 1.0898 -0.23047 2.207 -0.046875 3.3008 c 2.3984 -0.61328 4.9336 -0.40625 7.1992 0.58984 c 0.28125 0.10938 0.50781 0.32813 0.625 0.60547 c 0.11328 0.28125 0.11328 0.59375 -0.007812 0.87109 c -0.11719 0.27734 -0.34375 0.49219 -0.625 0.60156 c -0.28125 0.10547 -0.59766 0.09375 -0.87109 -0.035157 c -4.4414 -1.9648 -9.6367 0.03125 -11.625 4.4609 c -0.26172 0.53906 -0.90234 0.77344 -1.4492 0.53125 c -0.54688 -0.24219 -0.80078 -0.875 -0.57812 -1.4297 c 1.0508 -2.3594 2.9023 -4.2773 5.2227 -5.4102 c -0.44531 -2.1211 -0.26562 -4.3281 0.51172 -6.3516 c -2.1016 -3.4336 -6.5391 -4.6094 -10.066 -2.6602 c -3.6797 2.0391 -5.0625 6.6406 -3.1133 10.371 c 0.23047 0.4375 0.15234 0.97266 -0.20313 1.3203 c -0.35156 0.34766 -0.89062 0.42188 -1.3242 0.17969 c -3.6719 -1.9258 -8.207 -0.52344 -10.152 3.1406 c -0.86719 1.7461 -0.92969 3.7852 -0.17969 5.5859 c 0.76172 1.9766 2.1758 3.6367 4.0078 4.7031 c 1.2734 -0.007813 2.543 0.19141 3.7539 0.59375 c 0.28516 0.089843 0.51953 0.28906 0.65625 0.55469 s 0.16016 0.57422 0.066407 0.85547 c -0.09375 0.28516 -0.29688 0.51562 -0.56641 0.64844 c -0.26562 0.13281 -0.57422 0.15234 -0.85547 0.054688 c -3.9141 -1.293 -8.2188 0.085937 -10.652 3.418 c -2.4297 3.3281 -2.4375 7.8477 -0.015625 11.184 c 0.69141 -1.3516 1.6055 -2.5781 2.6992 -3.6328 c 0.44141 -0.42969 1.1445 -0.41797 1.5703 0.019531 c 0.42969 0.44141 0.41797 1.1445 -0.019531 1.5742 c -1.8086 1.6953 -2.9688 3.9727 -3.2812 6.4336 c -0.30469 2.4531 0.40234 4.9258 1.9609 6.8477 c 1.5547 1.9219 3.8281 3.1289 6.293 3.3398 c 0.4375 0.046876 0.80469 0.34766 0.9375 0.76563 c 0.13672 0.41406 0.011719 0.875 -0.31641 1.168 c -1.6367 1.5195 -2.1953 5.8477 -1.2461 7.9219 c 1.3086 2.8672 5.293 3.8555 8.0195 2.6758 z m 66.93 -58.719 c 1.5664 1.5664 1.668 4.0742 0.23047 5.7617 c -1.4375 1.6836 -3.9258 1.9844 -5.7227 0.6875 l -6.9922 5.6523 c -0.050782 0.039063 -0.69922 0.24609 -0.69922 0.24609 l -25.812 0.003906 l -0.011719 7.5547 h 18.258 c 0.55859 -2.0547 2.5508 -3.3789 4.6602 -3.0977 c 2.1133 0.28125 3.6875 2.082 3.6875 4.2109 s -1.5742 3.9297 -3.6875 4.2148 c -2.1094 0.28125 -4.1016 -1.043 -4.6602 -3.0977 h -18.262 l -0.011719 7.5547 h 25.844 s 0.64844 0.20703 0.69922 0.24609 l 6.9922 5.6523 v 0.003907 c 1.7266 -1.2461 4.1055 -1.0195 5.5703 0.52734 c 1.4609 1.5469 1.5508 3.9336 0.21484 5.5898 c -1.3398 1.6523 -3.6992 2.0586 -5.5156 0.94922 c -1.8164 -1.1094 -2.5273 -3.3906 -1.668 -5.3398 l -6.6797 -5.3984 h -25.461 l -0.011719 8.8906 l 9.375 -0.003907 l 5.1797 -2.543 c -0.41016 -2.0898 0.79687 -4.1602 2.8164 -4.8398 c 2.0195 -0.68359 4.2305 0.23828 5.168 2.1484 c 0.94141 1.9141 0.32031 4.2266 -1.4531 5.4102 c -1.7695 1.1836 -4.1445 0.875 -5.5508 -0.72656 l -5.4219 2.6641 h -0.003906 c -0.14844 0.074218 -0.31641 0.11328 -0.48438 0.11328 h -9.6211 l -0.011718 7.0078 h 5.5312 c 0.55859 -2.0547 2.5508 -3.3789 4.6602 -3.0977 s 3.6875 2.082 3.6875 4.2109 c 0 2.1289 -1.5781 3.9297 -3.6875 4.2109 s -4.1016 -1.043 -4.6602 -3.0977 h -5.543 l -0.011719 6.3242 h 12.883 l 5.1797 -2.543 c -0.41016 -2.0898 0.79297 -4.1602 2.8125 -4.8398 c 2.0195 -0.68359 4.2305 0.23828 5.168 2.1484 c 0.94141 1.9141 0.32031 4.2266 -1.4492 5.4102 c -1.7734 1.1836 -4.1484 0.87109 -5.5547 -0.72656 l -5.4219 2.6641 v -0.003906 c -0.15234 0.074218 -0.32031 0.11328 -0.48828 0.11328 l -13.129 0.003906 l -0.003906 3.1992 l 13.133 0.003906 s 0.44531 0.10156 0.48828 0.11719 l 5.4219 2.6641 c 1.4062 -1.6016 3.7812 -1.9141 5.5508 -0.73047 c 1.7734 1.1836 2.3945 3.4961 1.4531 5.4062 c -0.9375 1.9141 -3.1484 2.832 -5.168 2.1523 c -2.0195 -0.67969 -3.2227 -2.7461 -2.8125 -4.8359 l -5.1797 -2.543 l -12.891 -0.003906 l -0.003907 3.1016 h -0.003906 c 0.015625 0.25781 -0.058594 0.51172 -0.21094 0.71875 c -4.5391 6.1875 -13.121 3 -16.223 -1.8711 c -2.4375 1.8438 -5.4531 2.3867 -8.2109 0.66797 c -2.6094 -1.625 -4.1523 -4.5195 -4.043 -7.5938 c -3.5391 0.65625 -7.6641 -0.90625 -9.1875 -4.3086 c -1.0469 -2.9219 -0.83594 -6.1445 0.58203 -8.9062 c -2.957 -0.76562 -5.4766 -2.6875 -6.9961 -5.3359 c -1.5195 -2.6484 -1.9102 -5.7969 -1.0781 -8.7344 c -2.7656 -2.9922 -3.7812 -7.2109 -2.6758 -11.133 c 1.1016 -3.9258 4.1641 -6.9961 8.082 -8.1094 c -3.168 -2.9297 -4.8008 -7.7656 -2.6797 -11.773 h 0.003906 c 2.0586 -3.8906 6.4688 -5.918 10.762 -4.957 c -0.96094 -4.3438 1.0391 -8.8047 4.9297 -10.973 c 4.1562 -2.2969 9.3594 -1.2656 12.332 2.4414 c 1.7578 -2.332 4.4844 -3.7305 7.4023 -3.8008 c 2.5586 -0.085937 5.0469 0.83984 6.9258 2.5742 c 0.25781 0.21484 0.41016 0.53125 0.41016 0.86719 v 1.9844 h 14.598 l 1.2773 -1.125 c -0.9375 -1.9102 -0.3125 -4.2188 1.4609 -5.4023 c 1.7695 -1.1797 4.1445 -0.86719 5.5469 0.73438 c 1.4062 1.5977 1.4102 3.9922 0.011718 5.5938 c -1.3984 1.6055 -3.7695 1.9258 -5.5469 0.75391 l -1.5938 1.3984 c -0.20312 0.17969 -0.46484 0.27734 -0.73438 0.27734 h -15.023 l -0.007813 5.9062 h 11.27 s 0.66406 0.21875 0.71484 0.26172 l 2.1992 1.8398 c 1.7461 -1.2188 4.1211 -0.95312 5.5586 0.61719 c 1.4375 1.5664 1.4922 3.9609 0.125 5.5938 c -1.3672 1.6289 -3.7305 2 -5.5273 0.85938 c -1.7969 -1.1367 -2.4766 -3.4297 -1.5859 -5.3633 l -1.8828 -1.5781 h -10.879 l -0.011719 8.6484 h 25.422 l 6.6797 -5.3984 v -0.003906 c -0.82422 -1.8711 -0.19922 -4.0625 1.4883 -5.2188 c 1.6875 -1.1523 3.957 -0.94531 5.4023 0.5 z m -15.41 68.184 c -0.57812 -0.57812 -1.4453 -0.75 -2.2031 -0.4375 c -0.75391 0.3125 -1.2461 1.0469 -1.2461 1.8672 c 0 0.81641 0.49219 1.5508 1.2461 1.8633 c 0.75781 0.3125 1.625 0.14062 2.2031 -0.4375 c 0.78906 -0.78906 0.78906 -2.0664 0 -2.8555 z m 0 -14.371 c -0.57812 -0.57812 -1.4453 -0.75 -2.2031 -0.4375 c -0.75391 0.3125 -1.2461 1.0469 -1.2461 1.8672 c 0 0.81641 0.49219 1.5508 1.2461 1.8633 c 0.75781 0.3125 1.625 0.14062 2.2031 -0.4375 c 0.78906 -0.78906 0.78906 -2.0664 0 -2.8555 z m -12.582 -4.082 c -0.57812 -0.57813 -1.4453 -0.75 -2.2031 -0.4375 c -0.75391 0.3125 -1.2461 1.0508 -1.2461 1.8672 s 0.49219 1.5547 1.2461 1.8672 c 0.75781 0.3125 1.625 0.13672 2.2031 -0.44141 c 0.78906 -0.78906 0.78906 -2.0664 0 -2.8555 z m 9.1016 -13.707 c -0.57813 -0.57812 -1.4492 -0.75 -2.2031 -0.4375 c -0.75391 0.3125 -1.2461 1.0508 -1.2461 1.8672 s 0.49219 1.5508 1.2461 1.8633 c 0.75391 0.3125 1.625 0.14062 2.2031 -0.4375 c 0.78516 -0.78906 0.78516 -2.0664 0 -2.8555 z m 17.316 1.5859 c -0.57812 -0.57812 -1.4453 -0.75391 -2.2031 -0.4375 c -0.75391 0.3125 -1.2461 1.0469 -1.2461 1.8633 s 0.49219 1.5547 1.2461 1.8672 c 0.75781 0.3125 1.625 0.14063 2.2031 -0.4375 c 0.78516 -0.78906 0.78516 -2.0664 0 -2.8555 z m -13.648 -18.016 c -0.57812 -0.57812 -1.4453 -0.75 -2.1992 -0.4375 c -0.75781 0.3125 -1.25 1.0469 -1.25 1.8633 s 0.49219 1.5547 1.25 1.8672 c 0.75391 0.3125 1.6211 0.14062 2.1992 -0.4375 c 0.78906 -0.78906 0.78906 -2.0664 0 -2.8555 z m 13.648 -18.016 c -0.57812 -0.57812 -1.4453 -0.75 -2.2031 -0.4375 c -0.75391 0.3125 -1.2461 1.0469 -1.2461 1.8633 c 0 0.82031 0.49219 1.5547 1.2461 1.8672 c 0.75781 0.3125 1.625 0.14063 2.2031 -0.4375 c 0.78516 -0.78906 0.78516 -2.0664 0 -2.8555 z m -16.266 -14.891 c -0.57812 -0.57812 -1.4492 -0.75 -2.2031 -0.4375 s -1.2461 1.0469 -1.2461 1.8633 c 0 0.82031 0.49219 1.5547 1.2461 1.8672 s 1.625 0.14062 2.2031 -0.4375 c 0.78516 -0.78906 0.78516 -2.0664 0 -2.8555 z m -3.0938 16.715 c -0.57812 -0.57812 -1.4453 -0.75 -2.2031 -0.4375 c -0.75391 0.3125 -1.2461 1.0469 -1.2461 1.8633 c 0 0.82031 0.49219 1.5547 1.2461 1.8672 c 0.75781 0.3125 1.625 0.14062 2.2031 -0.4375 c 0.78906 -0.78906 0.78906 -2.0664 0 -2.8555 z m -30.68 43.527 c 0.0625 0.60938 -0.38281 1.1562 -0.99219 1.2188 s -1.1562 -0.37891 -1.2188 -0.99219 c -0.27344 -2.6055 -1.5703 -5 -3.6094 -6.6484 c -2.0352 -1.6484 -4.6445 -2.4258 -7.25 -2.1523 c -0.61328 0.0625 -1.1562 -0.37891 -1.2188 -0.99219 c -0.0625 -0.60938 0.37891 -1.1562 0.99219 -1.2188 c 6.6484 -0.69141 12.605 4.1367 13.301 10.789 z m -12.109 -27.32 c -0.39062 -0.46484 -0.33594 -1.1562 0.125 -1.5547 c 0.45703 -0.39844 1.1523 -0.35156 1.5547 0.10156 c 3.5742 4.125 9.8164 4.5781 13.945 1.0078 c 0.46484 -0.39453 1.1602 -0.33984 1.5586 0.12109 s 0.35156 1.1562 -0.10547 1.5586 c -2.4258 2.1016 -5.5898 3.1562 -8.793 2.9219 c -3.2031 -0.23047 -6.1836 -1.7266 -8.2852 -4.1562 z m 3.8242 34.984 c -0.36328 -0.49609 -0.25391 -1.1914 0.23828 -1.5547 c 0.49609 -0.35938 1.1914 -0.25391 1.5547 0.24219 c 2.7539 3.7539 7.3242 4.1055 10.387 0.42578 v -0.003906 c 0.18359 -0.23438 0.45703 -0.38672 0.75391 -0.41797 c 0.30078 -0.03125 0.59766 0.058594 0.82812 0.25 c 0.23047 0.19141 0.375 0.46875 0.39844 0.76953 c 0.023438 0.29688 -0.078125 0.59375 -0.27734 0.82031 c -3.9922 4.8047 -10.277 4.3828 -13.883 -0.53125 z" stroke-linecap="round" />
</g>
<g transform="matrix(0.73 0 0 0.7299999999999999 269.04000354372346 250.07324623293195)"  >
<path style="stroke: none; stroke-width: 1; stroke-dasharray: none; stroke-linecap: butt; stroke-dashoffset: 0; stroke-linejoin: miter; stroke-miterlimit: 4; fill: rgb(255,255,255); fill-rule: nonzero; opacity: 1;"  transform=" translate(-249.95000000000002, -250)" d="M 76.9 288.8 h 346.2 c 21.4 0 38.8 -17.4 38.8 -38.8 v 0 c 0 -21.4 -17.4 -38.8 -38.8 -38.8 H 76.9 C 55.4 211.2 38 228.6 38 250 v 0 C 38 271.4 55.4 288.8 76.9 288.8 z" stroke-linecap="round" />
</g>
<g transform="matrix(1 0 0 1 286.1 249.823)" style=""  ><path fill="#000000" opacity="1" d="M-154.97 0.31L-154.97-1.49L-141.98-10.56L-141.98-7.47L-151.85-0.59L-141.98 6.30L-141.98 9.39L-154.97 0.31Z"/><path fill="#000000" opacity="1" d="M-114.75-10.00L-114.75-5.50L-127.71-5.50L-127.71-2.69L-117.56-2.69L-117.56 1.80L-127.71 1.80L-127.71 8.83L-132.77 8.83L-132.77-10.00L-114.75-10.00Z"/><path fill="#000000" opacity="1" d="M-107.79-10.00L-102.73-10.00L-102.73 8.83L-107.79 8.83L-107.79-10.00Z"/><path fill="#000000" opacity="1" d="M-80.11-0.61L-75.05-0.61L-75.05 8.49Q-77.04 8.91-79.15 9.15Q-81.26 9.39-83.42 9.39L-83.42 9.39L-84.43 9.39Q-87.67 9.39-89.79 8.66Q-91.91 7.93-93.17 6.68Q-94.44 5.43-94.94 3.74Q-95.45 2.06-95.45 0.14L-95.45 0.14L-95.45-1.32Q-95.45-3.23-94.94-4.91Q-94.44-6.60-93.17-7.85Q-91.91-9.10-89.79-9.83Q-87.67-10.56-84.43-10.56L-84.43-10.56L-83.42-10.56Q-81.40-10.56-79.43-10.32Q-77.47-10.08-75.61-9.63L-75.61-9.63L-75.61-5.05Q-77.69-5.62-79.84-5.85Q-81.99-6.09-83.56-6.09L-83.56-6.09Q-86.09-6.09-87.45-5.69Q-88.82-5.28-89.45-4.55Q-90.08-3.82-90.18-2.81Q-90.28-1.79-90.28-0.59L-90.28-0.59Q-90.28 0.62-90.18 1.63Q-90.08 2.65-89.45 3.39Q-88.82 4.13-87.45 4.54Q-86.09 4.95-83.56 4.95L-83.56 4.95Q-82.05 4.95-80.11 4.78L-80.11 4.78L-80.11-0.61Z"/><path fill="#000000" opacity="1" d="M-52.46-10.00L-47.40-10.00L-47.40 0.99Q-47.40 2.73-47.85 4.25Q-48.30 5.76-49.39 6.92Q-50.49 8.07-52.34 8.73Q-54.20 9.39-57.01 9.39L-57.01 9.39L-58.02 9.39Q-60.83 9.39-62.68 8.73Q-64.54 8.07-65.64 6.92Q-66.73 5.76-67.18 4.25Q-67.63 2.73-67.63 0.99L-67.63 0.99L-67.63-10.00L-62.57-10.00L-62.57 0.26Q-62.57 1.18-62.49 2.01Q-62.40 2.84-61.94 3.49Q-61.48 4.13-60.45 4.51Q-59.43 4.89-57.51 4.89L-57.51 4.89Q-55.63 4.89-54.59 4.51Q-53.55 4.13-53.09 3.49Q-52.62 2.84-52.54 2.01Q-52.46 1.18-52.46 0.26L-52.46 0.26L-52.46-10.00Z"/><path fill="#000000" opacity="1" d="M-21.97-10.00L-21.97-5.50L-34.92-5.50L-34.92-2.69L-24.78-2.69L-24.78 1.80L-34.92 1.80L-34.92 4.33L-21.97 4.33L-21.97 8.83L-39.98 8.83L-39.98-10.00L-21.97-10.00Z"/><path fill="#000000" opacity="1" d="M5.40-1.32L5.40 0.14Q5.40 2.06 4.90 3.74Q4.39 5.43 3.13 6.68Q1.86 7.93-0.26 8.66Q-2.38 9.39-5.61 9.39L-5.61 9.39L-6.63 9.39Q-8.79 9.39-10.90 9.25Q-13.00 9.11-15.00 8.83L-15.00 8.83L-15.00-9.97Q-13.00-10.28-10.90-10.42Q-8.79-10.56-6.63-10.56L-6.63-10.56L-5.61-10.56Q-2.38-10.56-0.26-9.83Q1.86-9.10 3.13-7.85Q4.39-6.60 4.90-4.91Q5.40-3.23 5.40-1.32L5.40-1.32ZM-6.48 4.95L-6.48 4.95Q-3.96 4.95-2.59 4.54Q-1.23 4.13-0.60 3.39Q0.03 2.65 0.13 1.63Q0.23 0.62 0.23-0.59L0.23-0.59Q0.23-1.79 0.13-2.81Q0.03-3.82-0.60-4.55Q-1.23-5.28-2.59-5.69Q-3.96-6.09-6.48-6.09L-6.48-6.09Q-7.22-6.09-8.10-6.07Q-8.99-6.04-9.94-5.98L-9.94-5.98L-9.94 4.84Q-8.99 4.89-8.10 4.92Q-7.22 4.95-6.48 4.95Z"/><path fill="#000000" opacity="1" d="M30.75-10.00L30.75-5.50L17.79-5.50L17.79-2.69L27.94-2.69L27.94 1.80L17.79 1.80L17.79 4.33L30.75 4.33L30.75 8.83L12.74 8.83L12.74-10.00L30.75-10.00Z"/><path fill="#000000" opacity="1" d="M54.32-10.00L58.88-10.00L58.88-8.88L50.50 8.83L45.44 8.83L37.07-8.88L37.07-10.00L41.62-10.00L47.97 4.33L54.32-10.00Z"/><path fill="#000000" opacity="1" d="M60.53 15.85L70.40-12.25L72.93-12.25L63.06 15.85L60.53 15.85Z"/><path fill="#000000" opacity="1" d="M93.16-1.49L93.16 0.31L80.18 9.39L80.18 6.30L90.04-0.59L80.18-7.47L80.18-10.56L93.16-1.49Z"/></g></svg>