<?xml version="1.0" encoding="UTF-8" standalone="no" ?>
<!DOCTYPE svg PUBLIC "-//W3C//DTD SVG 1.1//EN" "http://www.w3.org/Graphics/SVG/1.1/DTD/svg11.dtd">
<svg xmlns="http://www.w3.org/2000/svg" xmlns:xlink="http://www.w3.org/1999/xlink" version="1.1" width="500" height="500" viewBox="0 0 500 500" xml:space="preserve">
<desc>Created with Fabric.js 3.6.3</desc>
<defs>
</defs>
<g transform="matrix(1 0 0 1 320.0023061556883 245.18799849767151)" style=""  ><path fill="#000000" opacity="1" d="M-136.14 0.34L-136.14-1.63L-121.91-11.58L-121.91-8.19L-132.72-0.64L-121.91 6.90L-121.91 10.29L-136.14 0.34Z"/><path fill="#000000" opacity="1" d="M-96.03-10.96L-96.03-6.03L-110.23-6.03L-110.23-2.95L-99.11-2.95L-99.11 1.98L-110.23 1.98L-110.23 9.68L-115.78 9.68L-115.78-10.96L-96.03-10.96Z"/><path fill="#000000" opacity="1" d="M-92.36-10.96L-86.82-10.96L-86.82 9.68L-92.36 9.68L-92.36-10.96Z"/><path fill="#000000" opacity="1" d="M-65.99-0.67L-60.45-0.67L-60.45 9.31Q-62.64 9.77-64.95 10.03Q-67.26 10.29-69.63 10.29L-69.63 10.29L-70.74 10.29Q-74.28 10.29-76.61 9.49Q-78.93 8.69-80.32 7.32Q-81.71 5.95-82.26 4.10Q-82.81 2.25-82.81 0.16L-82.81 0.16L-82.81-1.44Q-82.81-3.54-82.26-5.39Q-81.71-7.24-80.32-8.61Q-78.93-9.98-76.61-10.78Q-74.28-11.58-70.74-11.58L-70.74-11.58L-69.63-11.58Q-67.41-11.58-65.25-11.32Q-63.10-11.06-61.07-10.56L-61.07-10.56L-61.07-5.54Q-63.34-6.16-65.70-6.42Q-68.06-6.68-69.78-6.68L-69.78-6.68Q-72.56-6.68-74.05-6.23Q-75.54-5.79-76.24-4.99Q-76.93-4.19-77.04-3.08Q-77.15-1.97-77.15-0.64L-77.15-0.64Q-77.15 0.68-77.04 1.79Q-76.93 2.90-76.24 3.72Q-75.54 4.53-74.05 4.98Q-72.56 5.43-69.78 5.43L-69.78 5.43Q-68.12 5.43-65.99 5.24L-65.99 5.24L-65.99-0.67Z"/><path fill="#000000" opacity="1" d="M-39.65-10.96L-34.11-10.96L-34.11 1.08Q-34.11 2.99-34.60 4.66Q-35.10 6.32-36.30 7.58Q-37.50 8.85-39.53 9.57Q-41.56 10.29-44.65 10.29L-44.65 10.29L-45.75 10.29Q-48.83 10.29-50.87 9.57Q-52.90 8.85-54.10 7.58Q-55.30 6.32-55.80 4.66Q-56.29 2.99-56.29 1.08L-56.29 1.08L-56.29-10.96L-50.75-10.96L-50.75 0.28Q-50.75 1.30-50.65 2.21Q-50.56 3.12-50.05 3.82Q-49.54 4.53-48.42 4.95Q-47.29 5.36-45.20 5.36L-45.20 5.36Q-43.14 5.36-42.00 4.95Q-40.86 4.53-40.35 3.82Q-39.84 3.12-39.75 2.21Q-39.65 1.30-39.65 0.28L-39.65 0.28L-39.65-10.96Z"/><path fill="#000000" opacity="1" d="M-10.20-10.96L-10.20-6.03L-24.41-6.03L-24.41-2.95L-13.28-2.95L-13.28 1.98L-24.41 1.98L-24.41 4.75L-10.20 4.75L-10.20 9.68L-29.95 9.68L-29.95-10.96L-10.20-10.96Z"/><path fill="#000000" opacity="1" d="M15.83-1.44L15.83 0.16Q15.83 2.25 15.27 4.10Q14.72 5.95 13.33 7.32Q11.95 8.69 9.62 9.49Q7.29 10.29 3.75 10.29L3.75 10.29L2.64 10.29Q0.27 10.29-2.04 10.14Q-4.35 9.99-6.54 9.68L-6.54 9.68L-6.54-10.93Q-4.35-11.27-2.04-11.42Q0.27-11.58 2.64-11.58L2.64-11.58L3.75-11.58Q7.29-11.58 9.62-10.78Q11.95-9.98 13.33-8.61Q14.72-7.24 15.27-5.39Q15.83-3.54 15.83-1.44L15.83-1.44ZM2.80 5.43L2.80 5.43Q5.57 5.43 7.06 4.98Q8.56 4.53 9.25 3.72Q9.94 2.90 10.05 1.79Q10.16 0.68 10.16-0.64L10.16-0.64Q10.16-1.97 10.05-3.08Q9.94-4.19 9.25-4.99Q8.56-5.79 7.06-6.23Q5.57-6.68 2.80-6.68L2.80-6.68Q2.00-6.68 1.03-6.65Q0.06-6.62-0.99-6.56L-0.99-6.56L-0.99 5.30Q0.06 5.36 1.03 5.40Q2.00 5.43 2.80 5.43Z"/><path fill="#000000" opacity="1" d="M39.64-10.96L39.64-6.03L25.44-6.03L25.44-2.95L36.56-2.95L36.56 1.98L25.44 1.98L25.44 4.75L39.64 4.75L39.64 9.68L19.89 9.68L19.89-10.96L39.64-10.96Z"/><path fill="#000000" opacity="1" d="M61.51-10.96L66.50-10.96L66.50-9.73L57.32 9.68L51.78 9.68L42.60-9.73L42.60-10.96L47.59-10.96L54.55 4.75L61.51-10.96Z"/><path fill="#000000" opacity="1" d="M64.35 17.38L75.16-13.43L77.93-13.43L67.12 17.38L64.35 17.38Z"/><path fill="#000000" opacity="1" d="M96.14-1.63L96.14 0.34L81.91 10.29L81.91 6.90L92.72-0.64L81.91-8.19L81.91-11.58L96.14-1.63Z"/></g><g transform="matrix(2.79 0 0 2.56 303.7732851721813 274.142863051517)"  >
<path style="stroke: none; stroke-width: 1; stroke-dasharray: none; stroke-linecap: butt; stroke-dashoffset: 0; stroke-linejoin: miter; stroke-miterlimit: 4; fill: rgb(40,73,7); fill-rule: nonzero; opacity: 1;"  transform=" translate(-49.95, -50)" d="M 91.7 49 H 8.3 c -0.6 0 -1 0.4 -1 1 s 0.4 1 1 1 h 83.3 c 0.6 0 1 -0.4 1 -1 S 92.2 49 91.7 49 z" stroke-linecap="round" />
</g>
<g transform="matrix(1.0045463607959129 0 0 1.0045463607959129 123.10834930169085 250.69776000000002)"  >
<path style="stroke: none; stroke-width: 0; stroke-dasharray: none; stroke-linecap: butt; stroke-dashoffset: 0; stroke-linejoin: miter; stroke-miterlimit: 4; fill: rgb(40,73,7); fill-rule: evenodd; opacity: 1;"  transform=" translate(-50.00268712102311, -49.9982591328208)" d="m 26.234 79.855 c 0.39062 -0.19531 0.85547 -0.14453 1.1953 0.12891 c 0.33984 0.27344 0.48437 0.71875 0.37891 1.1406 c -0.69141 2.6914 0.44141 5.5234 2.7969 6.9922 c 2.1094 1.3164 4.332 0.64844 6.1055 -0.88281 c -0.36719 -1.3438 -0.097657 -2.7852 0.73047 -3.9023 c 0.17578 -0.23828 0.4375 -0.39453 0.73047 -0.44141 c 0.28906 -0.042969 0.58594 0.027344 0.82422 0.20312 c 0.49609 0.36328 0.60156 1.0586 0.23828 1.5547 c -0.83984 1.1367 -0.40625 2.6914 0.69922 4.0938 l 0.003906 -0.003907 c 1.2383 1.5039 2.8789 2.625 4.7266 3.2344 c 2.5391 1.0234 5.4453 0.29297 7.1953 -1.8086 l 0.12109 -79.398 c -3.2539 -2.6992 -7.4102 -2.1328 -10.344 0.70312 v 0.003906 c -0.89062 1.0117 -1.4883 2.2539 -1.7266 3.582 c -0.21484 1.0898 -0.23047 2.207 -0.046875 3.3008 c 2.3984 -0.61328 4.9336 -0.40625 7.1992 0.58984 c 0.28125 0.10938 0.50781 0.32813 0.625 0.60547 c 0.11328 0.28125 0.11328 0.59375 -0.007812 0.87109 c -0.11719 0.27734 -0.34375 0.49219 -0.625 0.60156 c -0.28125 0.10547 -0.59766 0.09375 -0.87109 -0.035157 c -4.4414 -1.9648 -9.6367 0.03125 -11.625 4.4609 c -0.26172 0.53906 -0.90234 0.77344 -1.4492 0.53125 c -0.54688 -0.24219 -0.80078 -0.875 -0.57812 -1.4297 c 1.0508 -2.3594 2.9023 -4.2773 5.2227 -5.4102 c -0.44531 -2.1211 -0.26562 -4.3281 0.51172 -6.3516 c -2.1016 -3.4336 -6.5391 -4.6094 -10.066 -2.6602 c -3.6797 2.0391 -5.0625 6.6406 -3.1133 10.371 c 0.23047 0.4375 0.15234 0.97266 -0.20313 1.3203 c -0.35156 0.34766 -0.89062 0.42188 -1.3242 0.17969 c -3.6719 -1.9258 -8.207 -0.52344 -10.152 3.1406 c -0.86719 1.7461 -0.92969 3.7852 -0.17969 5.5859 c 0.76172 1.9766 2.1758 3.6367 4.0078 4.7031 c 1.2734 -0.007813 2.543 0.19141 3.7539 0.59375 c 0.28516 0.089843 0.51953 0.28906 0.65625 0.55469 s 0.16016 0.57422 0.066407 0.85547 c -0.09375 0.28516 -0.29688 0.51562 -0.56641 0.64844 c -0.26562 0.13281 -0.57422 0.15234 -0.85547 0.054688 c -3.9141 -1.293 -8.2188 0.085937 -10.652 3.418 c -2.4297 3.3281 -2.4375 7.8477 -0.015625 11.184 c 0.69141 -1.3516 1.6055 -2.5781 2.6992 -3.6328 c 0.44141 -0.42969 1.1445 -0.41797 1.5703 0.019531 c 0.42969 0.44141 0.41797 1.1445 -0.019531 1.5742 c -1.8086 1.6953 -2.9688 3.9727 -3.2812 6.4336 c -0.30469 2.4531 0.40234 4.9258 1.9609 6.8477 c 1.5547 1.9219 3.8281 3.1289 6.293 3.3398 c 0.4375 0.046876 0.80469 0.34766 0.9375 0.76563 c 0.13672 0.41406 0.011719 0.875 -0.31641 1.168 c -1.6367 1.5195 -2.1953 5.8477 -1.2461 7.9219 c 1.3086 2.8672 5.293 3.8555 8.0195 2.6758 z m 66.93 -58.719 c 1.5664 1.5664 1.668 4.0742 0.23047 5.7617 c -1.4375 1.6836 -3.9258 1.9844 -5.7227 0.6875 l -6.9922 5.6523 c -0.050782 0.039063 -0.69922 0.24609 -0.69922 0.24609 l -25.812 0.003906 l -0.011719 7.5547 h 18.258 c 0.55859 -2.0547 2.5508 -3.3789 4.6602 -3.0977 c 2.1133 0.28125 3.6875 2.082 3.6875 4.2109 s -1.5742 3.9297 -3.6875 4.2148 c -2.1094 0.28125 -4.1016 -1.043 -4.6602 -3.0977 h -18.262 l -0.011719 7.5547 h 25.844 s 0.64844 0.20703 0.69922 0.24609 l 6.9922 5.6523 v 0.003907 c 1.7266 -1.2461 4.1055 -1.0195 5.5703 0.52734 c 1.4609 1.5469 1.5508 3.9336 0.21484 5.5898 c -1.3398 1.6523 -3.6992 2.0586 -5.5156 0.94922 c -1.8164 -1.1094 -2.5273 -3.3906 -1.668 -5.3398 l -6.6797 -5.3984 h -25.461 l -0.011719 8.8906 l 9.375 -0.003907 l 5.1797 -2.543 c -0.41016 -2.0898 0.79687 -4.1602 2.8164 -4.8398 c 2.0195 -0.68359 4.2305 0.23828 5.168 2.1484 c 0.94141 1.9141 0.32031 4.2266 -1.4531 5.4102 c -1.7695 1.1836 -4.1445 0.875 -5.5508 -0.72656 l -5.4219 2.6641 h -0.003906 c -0.14844 0.074218 -0.31641 0.11328 -0.48438 0.11328 h -9.6211 l -0.011718 7.0078 h 5.5312 c 0.55859 -2.0547 2.5508 -3.3789 4.6602 -3.0977 s 3.6875 2.082 3.6875 4.2109 c 0 2.1289 -1.5781 3.9297 -3.6875 4.2109 s -4.1016 -1.043 -4.6602 -3.0977 h -5.543 l -0.011719 6.3242 h 12.883 l 5.1797 -2.543 c -0.41016 -2.0898 0.79297 -4.1602 2.8125 -4.8398 c 2.0195 -0.68359 4.2305 0.23828 5.168 2.1484 c 0.94141 1.9141 0.32031 4.2266 -1.4492 5.4102 c -1.7734 1.1836 -4.1484 0.87109 -5.5547 -0.72656 l -5.4219 2.6641 v -0.003906 c -0.15234 0.074218 -0.32031 0.11328 -0.48828 0.11328 l -13.129 0.003906 l -0.003906 3.1992 l 13.133 0.003906 s 0.44531 0.10156 0.48828 0.11719 l 5.4219 2.6641 c 1.4062 -1.6016 3.7812 -1.9141 5.5508 -0.73047 c 1.7734 1.1836 2.3945 3.4961 1.4531 5.4062 c -0.9375 1.9141 -3.1484 2.832 -5.168 2.1523 c -2.0195 -0.67969 -3.2227 -2.7461 -2.8125 -4.8359 l -5.1797 -2.543 l -12.891 -0.003906 l -0.003907 3.1016 h -0.003906 c 0.015625 0.25781 -0.058594 0.51172 -0.21094 0.71875 c -4.5391 6.1875 -13.121 3 -16.223 -1.8711 c -2.4375 1.8438 -5.4531 2.3867 -8.2109 0.66797 c -2.6094 -1.625 -4.1523 -4.5195 -4.043 -7.5938 c -3.5391 0.65625 -7.6641 -0.90625 -9.1875 -4.3086 c -1.0469 -2.9219 -0.83594 -6.1445 0.58203 -8.9062 c -2.957 -0.76562 -5.4766 -2.6875 -6.9961 -5.3359 c -1.5195 -2.6484 -1.9102 -5.7969 -1.0781 -8.7344 c -2.7656 -2.9922 -3.7812 -7.2109 -2.6758 -11.133 c 1.1016 -3.9258 4.1641 -6.9961 8.082 -8.1094 c -3.168 -2.9297 -4.8008 -7.7656 -2.6797 -11.773 h 0.003906 c 2.0586 -3.8906 6.4688 -5.918 10.762 -4.957 c -0.96094 -4.3438 1.0391 -8.8047 4.9297 -10.973 c 4.1562 -2.2969 9.3594 -1.2656 12.332 2.4414 c 1.7578 -2.332 4.4844 -3.7305 7.4023 -3.8008 c 2.5586 -0.085937 5.0469 0.83984 6.9258 2.5742 c 0.25781 0.21484 0.41016 0.53125 0.41016 0.86719 v 1.9844 h 14.598 l 1.2773 -1.125 c -0.9375 -1.9102 -0.3125 -4.2188 1.4609 -5.4023 c 1.7695 -1.1797 4.1445 -0.86719 5.5469 0.73438 c 1.4062 1.5977 1.4102 3.9922 0.011718 5.5938 c -1.3984 1.6055 -3.7695 1.9258 -5.5469 0.75391 l -1.5938 1.3984 c -0.20312 0.17969 -0.46484 0.27734 -0.73438 0.27734 h -15.023 l -0.007813 5.9062 h 11.27 s 0.66406 0.21875 0.71484 0.26172 l 2.1992 1.8398 c 1.7461 -1.2188 4.1211 -0.95312 5.5586 0.61719 c 1.4375 1.5664 1.4922 3.9609 0.125 5.5938 c -1.3672 1.6289 -3.7305 2 -5.5273 0.85938 c -1.7969 -1.1367 -2.4766 -3.4297 -1.5859 -5.3633 l -1.8828 -1.5781 h -10.879 l -0.011719 8.6484 h 25.422 l 6.6797 -5.3984 v -0.003906 c -0.82422 -1.8711 -0.19922 -4.0625 1.4883 -5.2188 c 1.6875 -1.1523 3.957 -0.94531 5.4023 0.5 z m -15.41 68.184 c -0.57812 -0.57812 -1.4453 -0.75 -2.2031 -0.4375 c -0.75391 0.3125 -1.2461 1.0469 -1.2461 1.8672 c 0 0.81641 0.49219 1.5508 1.2461 1.8633 c 0.75781 0.3125 1.625 0.14062 2.2031 -0.4375 c 0.78906 -0.78906 0.78906 -2.0664 0 -2.8555 z m 0 -14.371 c -0.57812 -0.57812 -1.4453 -0.75 -2.2031 -0.4375 c -0.75391 0.3125 -1.2461 1.0469 -1.2461 1.8672 c 0 0.81641 0.49219 1.5508 1.2461 1.8633 c 0.75781 0.3125 1.625 0.14062 2.2031 -0.4375 c 0.78906 -0.78906 0.78906 -2.0664 0 -2.8555 z m -12.582 -4.082 c -0.57812 -0.57813 -1.4453 -0.75 -2.2031 -0.4375 c -0.75391 0.3125 -1.2461 1.0508 -1.2461 1.8672 s 0.49219 1.5547 1.2461 1.8672 c 0.75781 0.3125 1.625 0.13672 2.2031 -0.44141 c 0.78906 -0.78906 0.78906 -2.0664 0 -2.8555 z m 9.1016 -13.707 c -0.57813 -0.57812 -1.4492 -0.75 -2.2031 -0.4375 c -0.75391 0.3125 -1.2461 1.0508 -1.2461 1.8672 s 0.49219 1.5508 1.2461 1.8633 c 0.75391 0.3125 1.625 0.14062 2.2031 -0.4375 c 0.78516 -0.78906 0.78516 -2.0664 0 -2.8555 z m 17.316 1.5859 c -0.57812 -0.57812 -1.4453 -0.75391 -2.2031 -0.4375 c -0.75391 0.3125 -1.2461 1.0469 -1.2461 1.8633 s 0.49219 1.5547 1.2461 1.8672 c 0.75781 0.3125 1.625 0.14063 2.2031 -0.4375 c 0.78516 -0.78906 0.78516 -2.0664 0 -2.8555 z m -13.648 -18.016 c -0.57812 -0.57812 -1.4453 -0.75 -2.1992 -0.4375 c -0.75781 0.3125 -1.25 1.0469 -1.25 1.8633 s 0.49219 1.5547 1.25 1.8672 c 0.75391 0.3125 1.6211 0.14062 2.1992 -0.4375 c 0.78906 -0.78906 0.78906 -2.0664 0 -2.8555 z m 13.648 -18.016 c -0.57812 -0.57812 -1.4453 -0.75 -2.2031 -0.4375 c -0.75391 0.3125 -1.2461 1.0469 -1.2461 1.8633 c 0 0.82031 0.49219 1.5547 1.2461 1.8672 c 0.75781 0.3125 1.625 0.14063 2.2031 -0.4375 c 0.78516 -0.78906 0.78516 -2.0664 0 -2.8555 z m -16.266 -14.891 c -0.57812 -0.57812 -1.4492 -0.75 -2.2031 -0.4375 s -1.2461 1.0469 -1.2461 1.8633 c 0 0.82031 0.49219 1.5547 1.2461 1.8672 s 1.625 0.14062 2.2031 -0.4375 c 0.78516 -0.78906 0.78516 -2.0664 0 -2.8555 z m -3.0938 16.715 c -0.57812 -0.57812 -1.4453 -0.75 -2.2031 -0.4375 c -0.75391 0.3125 -1.2461 1.0469 -1.2461 1.8633 c 0 0.82031 0.49219 1.5547 1.2461 1.8672 c 0.75781 0.3125 1.625 0.14062 2.2031 -0.4375 c 0.78906 -0.78906 0.78906 -2.0664 0 -2.8555 z m -30.68 43.527 c 0.0625 0.60938 -0.38281 1.1562 -0.99219 1.2188 s -1.1562 -0.37891 -1.2188 -0.99219 c -0.27344 -2.6055 -1.5703 -5 -3.6094 -6.6484 c -2.0352 -1.6484 -4.6445 -2.4258 -7.25 -2.1523 c -0.61328 0.0625 -1.1562 -0.37891 -1.2188 -0.99219 c -0.0625 -0.60938 0.37891 -1.1562 0.99219 -1.2188 c 6.6484 -0.69141 12.605 4.1367 13.301 10.789 z m -12.109 -27.32 c -0.39062 -0.46484 -0.33594 -1.1562 0.125 -1.5547 c 0.45703 -0.39844 1.1523 -0.35156 1.5547 0.10156 c 3.5742 4.125 9.8164 4.5781 13.945 1.0078 c 0.46484 -0.39453 1.1602 -0.33984 1.5586 0.12109 s 0.35156 1.1562 -0.10547 1.5586 c -2.4258 2.1016 -5.5898 3.1562 -8.793 2.9219 c -3.2031 -0.23047 -6.1836 -1.7266 -8.2852 -4.1562 z m 3.8242 34.984 c -0.36328 -0.49609 -0.25391 -1.1914 0.23828 -1.5547 c 0.49609 -0.35938 1.1914 -0.25391 1.5547 0.24219 c 2.7539 3.7539 7.3242 4.1055 10.387 0.42578 v -0.003906 c 0.18359 -0.23438 0.45703 -0.38672 0.75391 -0.41797 c 0.30078 -0.03125 0.59766 0.058594 0.82812 0.25 c 0.23047 0.19141 0.375 0.46875 0.39844 0.76953 c 0.023438 0.29688 -0.078125 0.59375 -0.27734 0.82031 c -3.9922 4.8047 -10.277 4.3828 -13.883 -0.53125 z" stroke-linecap="round" />
</g>
</svg>