<?xml version="1.0" encoding="UTF-8" standalone="no" ?>
<!DOCTYPE svg PUBLIC "-//W3C//DTD SVG 1.1//EN" "http://www.w3.org/Graphics/SVG/1.1/DTD/svg11.dtd">
<svg xmlns="http://www.w3.org/2000/svg" xmlns:xlink="http://www.w3.org/1999/xlink" version="1.1" width="500" height="500" viewBox="0 0 500 500" xml:space="preserve">
<desc>Created with Fabric.js 3.6.3</desc>
<defs>
</defs>
<g transform="matrix(1 0 0 1 311.08595685399746 245.68799849767151)" style=""  ><path fill="#000000" opacity="1" d="M-136.14 0.34L-136.14-1.63L-121.91-11.58L-121.91-8.19L-132.72-0.64L-121.91 6.90L-121.91 10.29L-136.14 0.34Z"/><path fill="#000000" opacity="1" d="M-96.03-10.96L-96.03-6.03L-110.23-6.03L-110.23-2.95L-99.11-2.95L-99.11 1.98L-110.23 1.98L-110.23 9.68L-115.78 9.68L-115.78-10.96L-96.03-10.96Z"/><path fill="#000000" opacity="1" d="M-92.36-10.96L-86.82-10.96L-86.82 9.68L-92.36 9.68L-92.36-10.96Z"/><path fill="#000000" opacity="1" d="M-65.99-0.67L-60.45-0.67L-60.45 9.31Q-62.64 9.77-64.95 10.03Q-67.26 10.29-69.63 10.29L-69.63 10.29L-70.74 10.29Q-74.28 10.29-76.61 9.49Q-78.93 8.69-80.32 7.32Q-81.71 5.95-82.26 4.10Q-82.81 2.25-82.81 0.16L-82.81 0.16L-82.81-1.44Q-82.81-3.54-82.26-5.39Q-81.71-7.24-80.32-8.61Q-78.93-9.98-76.61-10.78Q-74.28-11.58-70.74-11.58L-70.74-11.58L-69.63-11.58Q-67.41-11.58-65.25-11.32Q-63.10-11.06-61.07-10.56L-61.07-10.56L-61.07-5.54Q-63.34-6.16-65.70-6.42Q-68.06-6.68-69.78-6.68L-69.78-6.68Q-72.56-6.68-74.05-6.23Q-75.54-5.79-76.24-4.99Q-76.93-4.19-77.04-3.08Q-77.15-1.97-77.15-0.64L-77.15-0.64Q-77.15 0.68-77.04 1.79Q-76.93 2.90-76.24 3.72Q-75.54 4.53-74.05 4.98Q-72.56 5.43-69.78 5.43L-69.78 5.43Q-68.12 5.43-65.99 5.24L-65.99 5.24L-65.99-0.67Z"/><path fill="#000000" opacity="1" d="M-39.65-10.96L-34.11-10.96L-34.11 1.08Q-34.11 2.99-34.60 4.66Q-35.10 6.32-36.30 7.58Q-37.50 8.85-39.53 9.57Q-41.56 10.29-44.65 10.29L-44.65 10.29L-45.75 10.29Q-48.83 10.29-50.87 9.57Q-52.90 8.85-54.10 7.58Q-55.30 6.32-55.80 4.66Q-56.29 2.99-56.29 1.08L-56.29 1.08L-56.29-10.96L-50.75-10.96L-50.75 0.28Q-50.75 1.30-50.65 2.21Q-50.56 3.12-50.05 3.82Q-49.54 4.53-48.42 4.95Q-47.29 5.36-45.20 5.36L-45.20 5.36Q-43.14 5.36-42.00 4.95Q-40.86 4.53-40.35 3.82Q-39.84 3.12-39.75 2.21Q-39.65 1.30-39.65 0.28L-39.65 0.28L-39.65-10.96Z"/><path fill="#000000" opacity="1" d="M-10.20-10.96L-10.20-6.03L-24.41-6.03L-24.41-2.95L-13.28-2.95L-13.28 1.98L-24.41 1.98L-24.41 4.75L-10.20 4.75L-10.20 9.68L-29.95 9.68L-29.95-10.96L-10.20-10.96Z"/><path fill="#000000" opacity="1" d="M15.83-1.44L15.83 0.16Q15.83 2.25 15.27 4.10Q14.72 5.95 13.33 7.32Q11.95 8.69 9.62 9.49Q7.29 10.29 3.75 10.29L3.75 10.29L2.64 10.29Q0.27 10.29-2.04 10.14Q-4.35 9.99-6.54 9.68L-6.54 9.68L-6.54-10.93Q-4.35-11.27-2.04-11.42Q0.27-11.58 2.64-11.58L2.64-11.58L3.75-11.58Q7.29-11.58 9.62-10.78Q11.95-9.98 13.33-8.61Q14.72-7.24 15.27-5.39Q15.83-3.54 15.83-1.44L15.83-1.44ZM2.80 5.43L2.80 5.43Q5.57 5.43 7.06 4.98Q8.56 4.53 9.25 3.72Q9.94 2.90 10.05 1.79Q10.16 0.68 10.16-0.64L10.16-0.64Q10.16-1.97 10.05-3.08Q9.94-4.19 9.25-4.99Q8.56-5.79 7.06-6.23Q5.57-6.68 2.80-6.68L2.80-6.68Q2.00-6.68 1.03-6.65Q0.06-6.62-0.99-6.56L-0.99-6.56L-0.99 5.30Q0.06 5.36 1.03 5.40Q2.00 5.43 2.80 5.43Z"/><path fill="#000000" opacity="1" d="M39.64-10.96L39.64-6.03L25.44-6.03L25.44-2.95L36.56-2.95L36.56 1.98L25.44 1.98L25.44 4.75L39.64 4.75L39.64 9.68L19.89 9.68L19.89-10.96L39.64-10.96Z"/><path fill="#000000" opacity="1" d="M61.51-10.96L66.50-10.96L66.50-9.73L57.32 9.68L51.78 9.68L42.60-9.73L42.60-10.96L47.59-10.96L54.55 4.75L61.51-10.96Z"/><path fill="#000000" opacity="1" d="M64.35 17.38L75.16-13.43L77.93-13.43L67.12 17.38L64.35 17.38Z"/><path fill="#000000" opacity="1" d="M96.14-1.63L96.14 0.34L81.91 10.29L81.91 6.90L92.72-0.64L81.91-8.19L81.91-11.58L96.14-1.63Z"/></g><g transform="matrix(2.79 0 0 2.56 294.8569358704905 274.642863051517)"  >
<linearGradient id="SVGID_24117" gradientUnits="userSpaceOnUse" gradientTransform="matrix(1 0 0 1 7.300000000000004 49)"  x1="0" y1="0" x2="85.3" y2="2">
<stop offset="0%" style="stop-color:rgb(0,104,56);stop-opacity: 1"/>
<stop offset="100%" style="stop-color:rgb(150,207,36);stop-opacity: 1"/>
</linearGradient>
<path style="stroke: none; stroke-width: 1; stroke-dasharray: none; stroke-linecap: butt; stroke-dashoffset: 0; stroke-linejoin: miter; stroke-miterlimit: 4; fill: url(#SVGID_24117); fill-rule: nonzero; opacity: 1;"  transform=" translate(-49.95, -50)" d="M 91.7 49 H 8.3 c -0.6 0 -1 0.4 -1 1 s 0.4 1 1 1 h 83.3 c 0.6 0 1 -0.4 1 -1 S 92.2 49 91.7 49 z" stroke-linecap="round" />
</g>
<g transform="matrix(0.6778799999999999 0 0 0.6778799999999999 114.19200000000001 251.19200000000004)"  >
<g style=""   >
		<g transform="matrix(1.3333333333333335 0 0 1.3333333333333335 0.6666666666666856 -47.666666666666664)"  >
<linearGradient id="SVGID_24118" gradientUnits="userSpaceOnUse" gradientTransform="matrix(1 0 0 1 21.695000000000007 3.125)"  x1="0" y1="0" x2="133.33333333333334" y2="133.33333333333334">
<stop offset="0%" style="stop-color:rgb(0,104,56);stop-opacity: 1"/>
<stop offset="100%" style="stop-color:rgb(150,207,36);stop-opacity: 1"/>
</linearGradient>
<path style="stroke: none; stroke-width: 1; stroke-dasharray: none; stroke-linecap: butt; stroke-dashoffset: 0; stroke-linejoin: miter; stroke-miterlimit: 4; fill: url(#SVGID_24118); fill-rule: nonzero; opacity: 1;"  transform=" translate(-50.00000000000001, -13.75)" d="m 78.305 13.75 c 0 5.8672 -12.672 10.625 -28.305 10.625 s -28.305 -4.7578 -28.305 -10.625 s 12.672 -10.625 28.305 -10.625 s 28.305 4.7578 28.305 10.625" stroke-linecap="round" />
</g>
		<g transform="matrix(1.3333333333333335 0 0 1.3333333333333335 0.6666666666666643 48.361933333333354)"  >
<linearGradient id="SVGID_24119" gradientUnits="userSpaceOnUse" gradientTransform="matrix(1 0 0 1 21.694999999999997 74.6679)"  x1="0" y1="0" x2="133.33333333333334" y2="133.33333333333334">
<stop offset="0%" style="stop-color:rgb(0,104,56);stop-opacity: 1"/>
<stop offset="100%" style="stop-color:rgb(150,207,36);stop-opacity: 1"/>
</linearGradient>
<path style="stroke: none; stroke-width: 1; stroke-dasharray: none; stroke-linecap: butt; stroke-dashoffset: 0; stroke-linejoin: miter; stroke-miterlimit: 4; fill: url(#SVGID_24119); fill-rule: nonzero; opacity: 1;"  transform=" translate(-50, -85.77145)" d="m 21.695 74.668 v 11.582 c 0 6.9023 14.582 10.625 28.305 10.625 s 28.305 -3.7227 28.305 -10.625 v -2.4258 c -5.8633 3.6133 -16.602 6.1484 -28.305 6.1484 c -0.86328 0 -1.5625 -0.69922 -1.5625 -1.5625 c 0 -0.86328 0.69922 -1.5625 1.5625 -1.5625 c 14.383 0 24.625 -3.7109 28.305 -6.8047 v -5.375 c -5.3672 4.9336 -16.867 7.207 -28.305 7.207 s -22.938 -2.2773 -28.305 -7.207 z m 10.824 10.457 c -0.22266 0.64844 -0.82812 1.0586 -1.4805 1.0586 c -0.16797 0 -0.33594 -0.027344 -0.50391 -0.082032 c -1.4023 -0.47656 -2.6641 -1.0117 -3.7578 -1.582 c -0.76562 -0.40234 -1.0586 -1.3477 -0.65625 -2.1094 c 0.40234 -0.76172 1.3477 -1.0547 2.1094 -0.65625 c 0.94922 0.5 2.0625 0.96875 3.3125 1.3945 c 0.81641 0.27734 1.2539 1.1641 0.97656 1.9805 z m 6.2578 2.8945 c -0.078125 0 -0.16016 -0.007812 -0.24219 -0.019531 c -1.3203 -0.20703 -2.6211 -0.45703 -3.8633 -0.74219 c -0.84375 -0.19141 -1.3672 -1.0312 -1.1758 -1.8711 c 0.19141 -0.84375 1.0273 -1.3711 1.8711 -1.1758 c 1.1719 0.26562 2.3984 0.50391 3.6523 0.69922 c 0.85156 0.13281 1.4336 0.93359 1.3008 1.7852 c -0.12109 0.76953 -0.78516 1.3203 -1.543 1.3203 z" stroke-linecap="round" />
</g>
		<g transform="matrix(1.3333333333333335 0 0 1.3333333333333335 0.6666666666666643 24.195333333333338)"  >
<linearGradient id="SVGID_24120" gradientUnits="userSpaceOnUse" gradientTransform="matrix(1 0 0 1 21.694999999999997 56.543000000000006)"  x1="0" y1="0" x2="133.33333333333334" y2="133.33333333333334">
<stop offset="0%" style="stop-color:rgb(0,104,56);stop-opacity: 1"/>
<stop offset="100%" style="stop-color:rgb(150,207,36);stop-opacity: 1"/>
</linearGradient>
<path style="stroke: none; stroke-width: 1; stroke-dasharray: none; stroke-linecap: butt; stroke-dashoffset: 0; stroke-linejoin: miter; stroke-miterlimit: 4; fill: url(#SVGID_24120); fill-rule: nonzero; opacity: 1;"  transform=" translate(-50, -67.6465)" d="m 21.695 56.543 v 11.582 c 0 6.9023 14.582 10.625 28.305 10.625 s 28.305 -3.7266 28.305 -10.625 v -2.1016 c -5.8633 3.6133 -16.602 6.1484 -28.305 6.1484 c -0.86328 0 -1.5625 -0.69922 -1.5625 -1.5625 s 0.69922 -1.5625 1.5625 -1.5625 c 14.383 0 24.625 -3.7109 28.305 -6.8047 v -5.6953 c -5.3672 4.9336 -16.867 7.207 -28.305 7.207 s -22.938 -2.2734 -28.305 -7.207 z m 10.824 11.148 c -0.22266 0.64844 -0.82812 1.0586 -1.4805 1.0586 c -0.16797 0 -0.33594 -0.027344 -0.50391 -0.082031 c -1.4023 -0.47656 -2.6641 -1.0117 -3.7578 -1.582 c -0.76562 -0.40234 -1.0586 -1.3477 -0.65625 -2.1094 c 0.40234 -0.76172 1.3477 -1.0547 2.1094 -0.65625 c 0.94922 0.5 2.0625 0.96875 3.3125 1.3945 c 0.81641 0.27734 1.2539 1.1641 0.97656 1.9805 z m 6.2578 2.8945 c -0.078125 0 -0.16016 -0.007813 -0.24219 -0.019532 c -1.3203 -0.20703 -2.6211 -0.45703 -3.8633 -0.74219 c -0.84375 -0.19141 -1.3672 -1.0312 -1.1758 -1.8711 c 0.19141 -0.84375 1.0273 -1.375 1.8711 -1.1758 c 1.1719 0.26562 2.3984 0.50391 3.6523 0.69922 c 0.85156 0.13281 1.4336 0.93359 1.3008 1.7852 c -0.12109 0.76953 -0.78516 1.3203 -1.543 1.3203 z" stroke-linecap="round" />
</g>
		<g transform="matrix(1.3333333333333335 0 0 1.3333333333333335 0.6666666666666643 0.028666666666675056)"  >
<linearGradient id="SVGID_24121" gradientUnits="userSpaceOnUse" gradientTransform="matrix(1 0 0 1 21.694999999999997 38.418000000000006)"  x1="0" y1="0" x2="133.33333333333334" y2="133.33333333333334">
<stop offset="0%" style="stop-color:rgb(0,104,56);stop-opacity: 1"/>
<stop offset="100%" style="stop-color:rgb(150,207,36);stop-opacity: 1"/>
</linearGradient>
<path style="stroke: none; stroke-width: 1; stroke-dasharray: none; stroke-linecap: butt; stroke-dashoffset: 0; stroke-linejoin: miter; stroke-miterlimit: 4; fill: url(#SVGID_24121); fill-rule: nonzero; opacity: 1;"  transform=" translate(-50, -49.5215)" d="m 21.695 38.418 v 11.582 c 0 6.9023 14.582 10.625 28.305 10.625 s 28.305 -3.7227 28.305 -10.625 v -1.7812 c -5.8633 3.6133 -16.602 6.1484 -28.305 6.1484 c -0.86328 0 -1.5625 -0.69922 -1.5625 -1.5625 c 0 -0.86328 0.69922 -1.5625 1.5625 -1.5625 c 14.383 0 24.625 -3.7109 28.305 -6.8047 v -6.0195 c -5.3672 4.9336 -16.867 7.207 -28.305 7.207 s -22.938 -2.2734 -28.305 -7.207 z m 10.824 11.844 c -0.22266 0.64844 -0.82812 1.0586 -1.4805 1.0586 c -0.16797 0 -0.33594 -0.027343 -0.50391 -0.082031 c -1.4023 -0.47656 -2.6641 -1.0117 -3.7578 -1.582 c -0.76562 -0.40234 -1.0586 -1.3477 -0.65625 -2.1094 s 1.3477 -1.0547 2.1094 -0.65625 c 0.94922 0.5 2.0625 0.96875 3.3125 1.3945 c 0.81641 0.27734 1.2539 1.1641 0.97656 1.9805 z m 6.2578 2.8945 c -0.078125 0 -2.8867 -0.48047 -4.1094 -0.76172 c -0.83984 -0.19531 -1.3672 -1.0312 -1.1719 -1.875 c 0.19531 -0.83984 1.0273 -1.3672 1.875 -1.1719 c 1.1484 0.26562 2.3789 0.5 3.6484 0.69922 c 0.85156 0.13281 1.4336 0.93359 1.3008 1.7852 c -0.12109 0.76953 -0.78516 1.3203 -1.543 1.3203 z" stroke-linecap="round" />
</g>
		<g transform="matrix(1.3333333333333335 0 0 1.3333333333333335 0.6666666666666643 -24.140666666666664)"  >
<linearGradient id="SVGID_24122" gradientUnits="userSpaceOnUse" gradientTransform="matrix(1 0 0 1 21.694999999999997 20.289)"  x1="0" y1="0" x2="133.33333333333334" y2="133.33333333333334">
<stop offset="0%" style="stop-color:rgb(0,104,56);stop-opacity: 1"/>
<stop offset="100%" style="stop-color:rgb(150,207,36);stop-opacity: 1"/>
</linearGradient>
<path style="stroke: none; stroke-width: 1; stroke-dasharray: none; stroke-linecap: butt; stroke-dashoffset: 0; stroke-linejoin: miter; stroke-miterlimit: 4; fill: url(#SVGID_24122); fill-rule: nonzero; opacity: 1;"  transform=" translate(-50, -31.3945)" d="m 21.695 20.293 v 11.582 c 0 6.9023 14.582 10.625 28.305 10.625 s 28.305 -3.7227 28.305 -10.625 v -1.4609 c -5.8633 3.6133 -16.602 6.1484 -28.305 6.1484 c -0.86328 0 -1.5625 -0.69922 -1.5625 -1.5625 s 0.69922 -1.5625 1.5625 -1.5625 c 14.383 0 24.625 -3.7109 28.305 -6.8047 v -6.3438 c -5.3672 4.9336 -16.867 7.207 -28.305 7.207 s -22.938 -2.2734 -28.305 -7.207 z m 10.824 12.539 c -0.22266 0.64844 -0.82812 1.0586 -1.4805 1.0586 c -0.16797 0 -0.33594 -0.027344 -0.50391 -0.082031 c -1.4023 -0.47656 -2.6641 -1.0117 -3.7578 -1.582 c -0.76562 -0.40234 -1.0586 -1.3477 -0.65625 -2.1094 c 0.40234 -0.76172 1.3477 -1.0547 2.1094 -0.65625 c 0.94922 0.5 2.0625 0.96875 3.3125 1.3945 c 0.81641 0.27734 1.2539 1.1641 0.97656 1.9805 z m 6.2578 2.8945 c -0.078125 0 -2.8867 -0.48047 -4.1094 -0.76172 c -0.83984 -0.19531 -1.3672 -1.0312 -1.1719 -1.875 c 0.19531 -0.83984 1.0273 -1.3672 1.875 -1.1719 c 1.1484 0.26562 2.3789 0.5 3.6484 0.69922 c 0.85156 0.13281 1.4336 0.93359 1.3008 1.7852 c -0.12109 0.76953 -0.78516 1.3203 -1.543 1.3203 z" stroke-linecap="round" />
</g>
</g>
</g>
</svg>